<?xml version="1.0" encoding="us-ascii" standalone="no"?><svg xmlns="http://www.w3.org/2000/svg" xmlns:xlink="http://www.w3.org/1999/xlink" contentStyleType="text/css" height="463px" preserveAspectRatio="none" style="width:1757px;height:463px;background:#FFFFFF;" version="1.1" viewBox="0 0 1757 463" width="1757px" zoomAndPan="magnify"><defs/><g><!--class User--><g id="elem_User"><rect codeLine="1" fill="#F1F1F1" height="145.7813" id="User" rx="2.5" ry="2.5" style="stroke:#181818;stroke-width:0.5;" width="213" x="7" y="64.04"/><ellipse cx="93.25" cy="80.04" fill="#ADD1B2" rx="11" ry="11" style="stroke:#181818;stroke-width:1.0;"/><path d="M96.2188,85.6806 Q95.6406,85.9775 95,86.1181 Q94.3594,86.2744 93.6563,86.2744 Q91.1563,86.2744 89.8281,84.6337 Q88.5156,82.9775 88.5156,79.8525 Q88.5156,76.7275 89.8281,75.0712 Q91.1563,73.415 93.6563,73.415 Q94.3594,73.415 95,73.5712 Q95.6563,73.7275 96.2188,74.0244 L96.2188,76.7431 Q95.5938,76.165 95,75.8994 Q94.4063,75.6181 93.7813,75.6181 Q92.4375,75.6181 91.75,76.6962 Q91.0625,77.7587 91.0625,79.8525 Q91.0625,81.9462 91.75,83.0244 Q92.4375,84.0869 93.7813,84.0869 Q94.4063,84.0869 95,83.8212 Q95.5938,83.54 96.2188,82.9619 L96.2188,85.6806 Z " fill="#000000"/><text fill="#000000" font-family="sans-serif" font-size="14" lengthAdjust="spacing" textLength="32" x="113.75" y="84.8867">User</text><line style="stroke:#181818;stroke-width:0.5;" x1="8" x2="219" y1="96.04" y2="96.04"/><rect fill="none" height="6" style="stroke:#C82930;stroke-width:1.0;" width="6" x="15" y="106.6884"/><text fill="#000000" font-family="sans-serif" font-size="14" lengthAdjust="spacing" textLength="100" x="27" y="113.0351">premium: bool</text><rect fill="none" height="6" style="stroke:#C82930;stroke-width:1.0;" width="6" x="15" y="122.9853"/><text fill="#000000" font-family="sans-serif" font-size="14" lengthAdjust="spacing" textLength="119" x="27" y="129.332">name: std::string</text><line style="stroke:#181818;stroke-width:0.5;" x1="8" x2="219" y1="136.6337" y2="136.6337"/><ellipse cx="18" cy="150.2822" fill="#84BE84" rx="3" ry="3" style="stroke:#038048;stroke-width:1.0;"/><text fill="#000000" font-family="sans-serif" font-size="14" lengthAdjust="spacing" textLength="42" x="27" y="153.6289">User()</text><ellipse cx="18" cy="166.5791" fill="#84BE84" rx="3" ry="3" style="stroke:#038048;stroke-width:1.0;"/><text fill="#000000" font-family="sans-serif" font-size="14" lengthAdjust="spacing" textLength="187" x="27" y="169.9257">User(p: bool, n: std::string)</text><ellipse cx="18" cy="182.8759" fill="#84BE84" rx="3" ry="3" style="stroke:#038048;stroke-width:1.0;"/><text fill="#000000" font-family="sans-serif" font-size="14" lengthAdjust="spacing" textLength="135" x="27" y="186.2226">hasPremium(): bool</text><ellipse cx="18" cy="199.1728" fill="#84BE84" rx="3" ry="3" style="stroke:#038048;stroke-width:1.0;"/><text fill="#000000" font-family="sans-serif" font-size="14" lengthAdjust="spacing" textLength="153" x="27" y="202.5195">getName(): std::string</text></g><!--class Observer--><g id="elem_Observer"><rect codeLine="10" fill="#F1F1F1" height="64.2969" id="Observer" rx="2.5" ry="2.5" style="stroke:#181818;stroke-width:0.5;" width="405" x="255" y="104.78"/><ellipse cx="421.75" cy="120.78" fill="#ADD1B2" rx="11" ry="11" style="stroke:#181818;stroke-width:1.0;"/><path d="M424.7188,126.4206 Q424.1406,126.7175 423.5,126.8581 Q422.8594,127.0144 422.1563,127.0144 Q419.6563,127.0144 418.3281,125.3737 Q417.0156,123.7175 417.0156,120.5925 Q417.0156,117.4675 418.3281,115.8112 Q419.6563,114.155 422.1563,114.155 Q422.8594,114.155 423.5,114.3112 Q424.1563,114.4675 424.7188,114.7644 L424.7188,117.4831 Q424.0938,116.905 423.5,116.6394 Q422.9063,116.3581 422.2813,116.3581 Q420.9375,116.3581 420.25,117.4362 Q419.5625,118.4987 419.5625,120.5925 Q419.5625,122.6862 420.25,123.7644 Q420.9375,124.8269 422.2813,124.8269 Q422.9063,124.8269 423.5,124.5612 Q424.0938,124.28 424.7188,123.7019 L424.7188,126.4206 Z " fill="#000000"/><text fill="#000000" font-family="sans-serif" font-size="14" lengthAdjust="spacing" textLength="63" x="442.25" y="125.6267">Observer</text><line style="stroke:#181818;stroke-width:0.5;" x1="256" x2="659" y1="136.78" y2="136.78"/><line style="stroke:#181818;stroke-width:0.5;" x1="256" x2="659" y1="144.78" y2="144.78"/><ellipse cx="266" cy="158.4284" fill="#84BE84" rx="3" ry="3" style="stroke:#038048;stroke-width:1.0;"/><text fill="#000000" font-family="sans-serif" font-size="14" lengthAdjust="spacing" textLength="379" x="275" y="161.7751">notify(bookTitle: std::string, newPrice: std::string): void</text></g><!--class UserObserver--><g id="elem_UserObserver"><rect codeLine="14" fill="#F1F1F1" height="129.4844" id="UserObserver" rx="2.5" ry="2.5" style="stroke:#181818;stroke-width:0.5;" width="405" x="83" y="326.86"/><ellipse cx="233.75" cy="342.86" fill="#ADD1B2" rx="11" ry="11" style="stroke:#181818;stroke-width:1.0;"/><path d="M236.7188,348.5006 Q236.1406,348.7975 235.5,348.9381 Q234.8594,349.0944 234.1563,349.0944 Q231.6563,349.0944 230.3281,347.4537 Q229.0156,345.7975 229.0156,342.6725 Q229.0156,339.5475 230.3281,337.8912 Q231.6563,336.235 234.1563,336.235 Q234.8594,336.235 235.5,336.3912 Q236.1563,336.5475 236.7188,336.8444 L236.7188,339.5631 Q236.0938,338.985 235.5,338.7194 Q234.9063,338.4381 234.2813,338.4381 Q232.9375,338.4381 232.25,339.5162 Q231.5625,340.5787 231.5625,342.6725 Q231.5625,344.7662 232.25,345.8444 Q232.9375,346.9069 234.2813,346.9069 Q234.9063,346.9069 235.5,346.6412 Q236.0938,346.36 236.7188,345.7819 L236.7188,348.5006 Z " fill="#000000"/><text fill="#000000" font-family="sans-serif" font-size="14" lengthAdjust="spacing" textLength="95" x="254.25" y="347.7067">UserObserver</text><line style="stroke:#181818;stroke-width:0.5;" x1="84" x2="487" y1="358.86" y2="358.86"/><rect fill="none" height="6" style="stroke:#C82930;stroke-width:1.0;" width="6" x="91" y="369.5084"/><text fill="#000000" font-family="sans-serif" font-size="14" lengthAdjust="spacing" textLength="229" x="103" y="375.8551">users: std::vector&lt;const User*&gt;</text><line style="stroke:#181818;stroke-width:0.5;" x1="84" x2="487" y1="383.1569" y2="383.1569"/><ellipse cx="94" cy="396.8053" fill="#84BE84" rx="3" ry="3" style="stroke:#038048;stroke-width:1.0;"/><text fill="#000000" font-family="sans-serif" font-size="14" lengthAdjust="spacing" textLength="379" x="103" y="400.152">notify(bookTitle: std::string, newPrice: std::string): void</text><ellipse cx="94" cy="413.1022" fill="#84BE84" rx="3" ry="3" style="stroke:#038048;stroke-width:1.0;"/><text fill="#000000" font-family="sans-serif" font-size="14" lengthAdjust="spacing" textLength="227" x="103" y="416.4489">addUser(user: const User*): void</text><ellipse cx="94" cy="429.3991" fill="#84BE84" rx="3" ry="3" style="stroke:#038048;stroke-width:1.0;"/><text fill="#000000" font-family="sans-serif" font-size="14" lengthAdjust="spacing" textLength="262" x="103" y="432.7457">containsUser(user: const User*): bool</text><ellipse cx="94" cy="445.6959" fill="#84BE84" rx="3" ry="3" style="stroke:#038048;stroke-width:1.0;"/><text fill="#000000" font-family="sans-serif" font-size="14" lengthAdjust="spacing" textLength="253" x="103" y="449.0426">removeUser(user: const User*): void</text></g><!--class UserFactory--><g id="elem_UserFactory"><rect codeLine="22" fill="#F1F1F1" height="64.2969" id="UserFactory" rx="2.5" ry="2.5" style="stroke:#181818;stroke-width:0.5;" width="397" x="695" y="104.78"/><ellipse cx="848.25" cy="120.78" fill="#ADD1B2" rx="11" ry="11" style="stroke:#181818;stroke-width:1.0;"/><path d="M851.2188,126.4206 Q850.6406,126.7175 850,126.8581 Q849.3594,127.0144 848.6563,127.0144 Q846.1563,127.0144 844.8281,125.3737 Q843.5156,123.7175 843.5156,120.5925 Q843.5156,117.4675 844.8281,115.8112 Q846.1563,114.155 848.6563,114.155 Q849.3594,114.155 850,114.3112 Q850.6563,114.4675 851.2188,114.7644 L851.2188,117.4831 Q850.5938,116.905 850,116.6394 Q849.4063,116.3581 848.7813,116.3581 Q847.4375,116.3581 846.75,117.4362 Q846.0625,118.4987 846.0625,120.5925 Q846.0625,122.6862 846.75,123.7644 Q847.4375,124.8269 848.7813,124.8269 Q849.4063,124.8269 850,124.5612 Q850.5938,124.28 851.2188,123.7019 L851.2188,126.4206 Z " fill="#000000"/><text fill="#000000" font-family="sans-serif" font-size="14" lengthAdjust="spacing" textLength="82" x="868.75" y="125.6267">UserFactory</text><line style="stroke:#181818;stroke-width:0.5;" x1="696" x2="1091" y1="136.78" y2="136.78"/><line style="stroke:#181818;stroke-width:0.5;" x1="696" x2="1091" y1="144.78" y2="144.78"/><ellipse cx="706" cy="158.4284" fill="#84BE84" rx="3" ry="3" style="stroke:#038048;stroke-width:1.0;"/><text fill="#000000" font-family="sans-serif" font-size="14" lengthAdjust="spacing" textLength="371" x="715" y="161.7751">createUser(type: std::string, name: std::string): User*</text></g><!--class IBook--><g id="elem_IBook"><rect codeLine="26" fill="#F1F1F1" height="113.1875" id="IBook" rx="2.5" ry="2.5" style="stroke:#181818;stroke-width:0.5;" width="189" x="1316" y="335"/><ellipse cx="1386.75" cy="351" fill="#ADD1B2" rx="11" ry="11" style="stroke:#181818;stroke-width:1.0;"/><path d="M1389.7188,356.6406 Q1389.1406,356.9375 1388.5,357.0781 Q1387.8594,357.2344 1387.1563,357.2344 Q1384.6563,357.2344 1383.3281,355.5937 Q1382.0156,353.9375 1382.0156,350.8125 Q1382.0156,347.6875 1383.3281,346.0312 Q1384.6563,344.375 1387.1563,344.375 Q1387.8594,344.375 1388.5,344.5312 Q1389.1563,344.6875 1389.7188,344.9844 L1389.7188,347.7031 Q1389.0938,347.125 1388.5,346.8594 Q1387.9063,346.5781 1387.2813,346.5781 Q1385.9375,346.5781 1385.25,347.6562 Q1384.5625,348.7187 1384.5625,350.8125 Q1384.5625,352.9062 1385.25,353.9844 Q1385.9375,355.0469 1387.2813,355.0469 Q1387.9063,355.0469 1388.5,354.7812 Q1389.0938,354.5 1389.7188,353.9219 L1389.7188,356.6406 Z " fill="#000000"/><text fill="#000000" font-family="sans-serif" font-size="14" lengthAdjust="spacing" textLength="39" x="1407.25" y="355.8467">IBook</text><line style="stroke:#181818;stroke-width:0.5;" x1="1317" x2="1504" y1="367" y2="367"/><line style="stroke:#181818;stroke-width:0.5;" x1="1317" x2="1504" y1="375" y2="375"/><ellipse cx="1327" cy="388.6484" fill="#84BE84" rx="3" ry="3" style="stroke:#038048;stroke-width:1.0;"/><text fill="#000000" font-family="sans-serif" font-size="14" lengthAdjust="spacing" textLength="142" x="1336" y="391.9951">getTitle(): std::string</text><ellipse cx="1327" cy="404.9453" fill="#84BE84" rx="3" ry="3" style="stroke:#038048;stroke-width:1.0;"/><text fill="#000000" font-family="sans-serif" font-size="14" lengthAdjust="spacing" textLength="159" x="1336" y="408.292">getAuthor(): std::string</text><ellipse cx="1327" cy="421.2422" fill="#84BE84" rx="3" ry="3" style="stroke:#038048;stroke-width:1.0;"/><text fill="#000000" font-family="sans-serif" font-size="14" lengthAdjust="spacing" textLength="157" x="1336" y="424.5889">read(user: User*): void</text><ellipse cx="1327" cy="437.5391" fill="#84BE84" rx="3" ry="3" style="stroke:#038048;stroke-width:1.0;"/><text fill="#000000" font-family="sans-serif" font-size="14" lengthAdjust="spacing" textLength="163" x="1336" y="440.8857">listen(user: User*): void</text></g><!--class BookProxy--><g id="elem_BookProxy"><rect codeLine="33" fill="#F1F1F1" height="129.4844" id="BookProxy" rx="2.5" ry="2.5" style="stroke:#181818;stroke-width:0.5;" width="238" x="1127.5" y="72.18"/><ellipse cx="1205.75" cy="88.18" fill="#ADD1B2" rx="11" ry="11" style="stroke:#181818;stroke-width:1.0;"/><path d="M1208.7188,93.8206 Q1208.1406,94.1175 1207.5,94.2581 Q1206.8594,94.4144 1206.1563,94.4144 Q1203.6563,94.4144 1202.3281,92.7737 Q1201.0156,91.1175 1201.0156,87.9925 Q1201.0156,84.8675 1202.3281,83.2112 Q1203.6563,81.555 1206.1563,81.555 Q1206.8594,81.555 1207.5,81.7112 Q1208.1563,81.8675 1208.7188,82.1644 L1208.7188,84.8831 Q1208.0938,84.305 1207.5,84.0394 Q1206.9063,83.7581 1206.2813,83.7581 Q1204.9375,83.7581 1204.25,84.8362 Q1203.5625,85.8987 1203.5625,87.9925 Q1203.5625,90.0862 1204.25,91.1644 Q1204.9375,92.2269 1206.2813,92.2269 Q1206.9063,92.2269 1207.5,91.9612 Q1208.0938,91.68 1208.7188,91.1019 L1208.7188,93.8206 Z " fill="#000000"/><text fill="#000000" font-family="sans-serif" font-size="14" lengthAdjust="spacing" textLength="73" x="1226.25" y="93.0267">BookProxy</text><line style="stroke:#181818;stroke-width:0.5;" x1="1128.5" x2="1364.5" y1="104.18" y2="104.18"/><rect fill="none" height="6" style="stroke:#C82930;stroke-width:1.0;" width="6" x="1135.5" y="114.8284"/><text fill="#000000" font-family="sans-serif" font-size="14" lengthAdjust="spacing" textLength="90" x="1147.5" y="121.1751">book: IBook*</text><rect fill="none" height="6" style="stroke:#C82930;stroke-width:1.0;" width="6" x="1135.5" y="131.1253"/><text fill="#000000" font-family="sans-serif" font-size="14" lengthAdjust="spacing" textLength="79" x="1147.5" y="137.472">user: User*</text><line style="stroke:#181818;stroke-width:0.5;" x1="1128.5" x2="1364.5" y1="144.7737" y2="144.7737"/><ellipse cx="1138.5" cy="158.4222" fill="#84BE84" rx="3" ry="3" style="stroke:#038048;stroke-width:1.0;"/><text fill="#000000" font-family="sans-serif" font-size="14" lengthAdjust="spacing" textLength="212" x="1147.5" y="161.7689">BookProxy(b: IBook*, u: User*)</text><ellipse cx="1138.5" cy="174.7191" fill="#84BE84" rx="3" ry="3" style="stroke:#038048;stroke-width:1.0;"/><text fill="#000000" font-family="sans-serif" font-size="14" lengthAdjust="spacing" textLength="114" x="1147.5" y="178.0657">readBook(): void</text><ellipse cx="1138.5" cy="191.0159" fill="#84BE84" rx="3" ry="3" style="stroke:#038048;stroke-width:1.0;"/><text fill="#000000" font-family="sans-serif" font-size="14" lengthAdjust="spacing" textLength="120" x="1147.5" y="194.3626">listenBook(): void</text></g><!--class Book--><g id="elem_Book"><rect codeLine="41" fill="#F1F1F1" height="259.8594" id="Book" rx="2.5" ry="2.5" style="stroke:#181818;stroke-width:0.5;" width="350" x="1400.5" y="7"/><ellipse cx="1553.25" cy="23" fill="#ADD1B2" rx="11" ry="11" style="stroke:#181818;stroke-width:1.0;"/><path d="M1556.2188,28.6406 Q1555.6406,28.9375 1555,29.0781 Q1554.3594,29.2344 1553.6563,29.2344 Q1551.1563,29.2344 1549.8281,27.5938 Q1548.5156,25.9375 1548.5156,22.8125 Q1548.5156,19.6875 1549.8281,18.0313 Q1551.1563,16.375 1553.6563,16.375 Q1554.3594,16.375 1555,16.5313 Q1555.6563,16.6875 1556.2188,16.9844 L1556.2188,19.7031 Q1555.5938,19.125 1555,18.8594 Q1554.4063,18.5781 1553.7813,18.5781 Q1552.4375,18.5781 1551.75,19.6563 Q1551.0625,20.7188 1551.0625,22.8125 Q1551.0625,24.9063 1551.75,25.9844 Q1552.4375,27.0469 1553.7813,27.0469 Q1554.4063,27.0469 1555,26.7813 Q1555.5938,26.5 1556.2188,25.9219 L1556.2188,28.6406 Z " fill="#000000"/><text fill="#000000" font-family="sans-serif" font-size="14" lengthAdjust="spacing" textLength="36" x="1573.75" y="27.8467">Book</text><line style="stroke:#181818;stroke-width:0.5;" x1="1401.5" x2="1749.5" y1="39" y2="39"/><rect fill="none" height="6" style="stroke:#C82930;stroke-width:1.0;" width="6" x="1408.5" y="49.6484"/><text fill="#000000" font-family="sans-serif" font-size="14" lengthAdjust="spacing" textLength="105" x="1420.5" y="55.9951">title: std::string</text><rect fill="none" height="6" style="stroke:#C82930;stroke-width:1.0;" width="6" x="1408.5" y="65.9453"/><text fill="#000000" font-family="sans-serif" font-size="14" lengthAdjust="spacing" textLength="125" x="1420.5" y="72.292">author: std::string</text><rect fill="none" height="6" style="stroke:#C82930;stroke-width:1.0;" width="6" x="1408.5" y="82.2422"/><text fill="#000000" font-family="sans-serif" font-size="14" lengthAdjust="spacing" textLength="114" x="1420.5" y="88.5889">price: std::string</text><rect fill="none" height="6" style="stroke:#C82930;stroke-width:1.0;" width="6" x="1408.5" y="98.5391"/><text fill="#000000" font-family="sans-serif" font-size="14" lengthAdjust="spacing" textLength="178" x="1420.5" y="104.8857">static obs: UserObserver*</text><line style="stroke:#181818;stroke-width:0.5;" x1="1401.5" x2="1749.5" y1="112.1875" y2="112.1875"/><ellipse cx="1411.5" cy="125.8359" fill="#84BE84" rx="3" ry="3" style="stroke:#038048;stroke-width:1.0;"/><text fill="#000000" font-family="sans-serif" font-size="14" lengthAdjust="spacing" textLength="46" x="1420.5" y="129.1826">Book()</text><ellipse cx="1411.5" cy="142.1328" fill="#84BE84" rx="3" ry="3" style="stroke:#038048;stroke-width:1.0;"/><text fill="#000000" font-family="sans-serif" font-size="14" lengthAdjust="spacing" textLength="324" x="1420.5" y="145.4795">Book(t: std::string, a: std::string, p: std::string)</text><ellipse cx="1411.5" cy="158.4297" fill="#84BE84" rx="3" ry="3" style="stroke:#038048;stroke-width:1.0;"/><text fill="#000000" font-family="sans-serif" font-size="14" lengthAdjust="spacing" textLength="192" x="1420.5" y="161.7764">setPrice(p: std::string): void</text><ellipse cx="1411.5" cy="174.7266" fill="#84BE84" rx="3" ry="3" style="stroke:#038048;stroke-width:1.0;"/><text fill="#000000" font-family="sans-serif" font-size="14" lengthAdjust="spacing" textLength="159" x="1420.5" y="178.0732">getAuthor(): std::string</text><ellipse cx="1411.5" cy="191.0234" fill="#84BE84" rx="3" ry="3" style="stroke:#038048;stroke-width:1.0;"/><text fill="#000000" font-family="sans-serif" font-size="14" lengthAdjust="spacing" textLength="142" x="1420.5" y="194.3701">getTitle(): std::string</text><ellipse cx="1411.5" cy="207.3203" fill="#84BE84" rx="3" ry="3" style="stroke:#038048;stroke-width:1.0;"/><text fill="#000000" font-family="sans-serif" font-size="14" lengthAdjust="spacing" textLength="237" x="1420.5" y="210.667">subscribe(user: const User*): void</text><ellipse cx="1411.5" cy="223.6172" fill="#84BE84" rx="3" ry="3" style="stroke:#038048;stroke-width:1.0;"/><text fill="#000000" font-family="sans-serif" font-size="14" lengthAdjust="spacing" textLength="255" x="1420.5" y="226.9639">unsubscribe(user: const User*): void</text><ellipse cx="1411.5" cy="239.9141" fill="#84BE84" rx="3" ry="3" style="stroke:#038048;stroke-width:1.0;"/><text fill="#000000" font-family="sans-serif" font-size="14" lengthAdjust="spacing" textLength="157" x="1420.5" y="243.2607">read(user: User*): void</text><ellipse cx="1411.5" cy="256.2109" fill="#84BE84" rx="3" ry="3" style="stroke:#038048;stroke-width:1.0;"/><text fill="#000000" font-family="sans-serif" font-size="14" lengthAdjust="spacing" textLength="163" x="1420.5" y="259.5576">listen(user: User*): void</text></g><!--reverse link User to UserObserver--><g id="link_User_UserObserver"><path codeLine="57" d="M165.936,214.9501 C190.956,251.7101 217.75,291.08 241.95,326.62 " fill="none" id="User-backto-UserObserver" style="stroke:#181818;stroke-width:1.0;"/><polygon fill="#181818" points="162.56,209.99,164.3173,219.6808,165.3733,214.1234,170.9307,215.1795,162.56,209.99" style="stroke:#181818;stroke-width:1.0;"/></g><!--reverse link Observer to UserObserver--><g id="link_Observer_UserObserver"><path codeLine="58" d="M425.9309,184.2996 C399.3209,223.3896 363.41,276.15 329.22,326.37 " fill="none" id="Observer-backto-UserObserver" style="stroke:#181818;stroke-width:1.0;"/><polygon fill="none" points="436.06,169.42,420.9711,180.9232,430.8908,187.6759,436.06,169.42" style="stroke:#181818;stroke-width:1.0;"/></g><!--reverse link Book to IBook--><g id="link_Book_IBook"><path codeLine="59" d="M1481.2298,282.2922 C1465.7698,305.9722 1460.23,314.44 1447.13,334.51 " fill="none" id="Book-backto-IBook" style="stroke:#181818;stroke-width:1.0;"/><polygon fill="none" points="1491.07,267.22,1476.2057,279.0121,1486.2539,285.5722,1491.07,267.22" style="stroke:#181818;stroke-width:1.0;"/></g><!--link BookProxy to IBook--><g id="link_BookProxy_IBook"><path codeLine="60" d="M1288.1,202.01 C1314.67,242.95 1345.5127,290.4776 1370.9827,329.7076 " fill="none" id="BookProxy-to-IBook" style="stroke:#181818;stroke-width:1.0;"/><polygon fill="#181818" points="1374.25,334.74,1372.704,325.0132,1371.5273,330.5463,1365.9942,329.3696,1374.25,334.74" style="stroke:#181818;stroke-width:1.0;"/></g><!--SRC=[hLJBJiCm4BpdAtnC7_a1gwe41oGkq0DyWEEOrYAr8-yc407_ZkCahfs65WboyyvwTdPt75uo0F8Cmf2FXDWl8vKHHraVAScrBeUOOaT12M11AQ2HQk_YAtSnNOI7gh-t9YhA7tCE37OzVxe8Agp8Nk23BT95mp9VISATnCVSiZTUveeeZVAbJIt5wvF4CfPdouktdP4y3bloHilYnDf9dZ1dfBPd6EurWgCs6wuLeCjURl-XVi_0YiADhAj7IL0YJhC0CgdWnznWYdQqkX6NMQFcxrZNN-kdoerWs1DWMvqrDRM1vNJS9zBxMpiGJsUtweOpNQj7RseyQ3CFMod5qCRCM4e9ADGSxhLqKdP6lxT-jTssQAzn6MnxxA9dzjVIVCnTatei4eZhe7HELGH4ShmIFFFC030taJcaElFJ000ob9pe76ZawB0X_qhT0IUBPPDpDVjuGQ3pT5fTSFMLfLvs1DGvS2DpSUrHrEhNgN-maVilRh8icchYVnYRpodaLkp2pZV9oO5PjkrZtm00]--></g></svg>