<?xml version="1.0" encoding="UTF-8" standalone="no"?>
<svg
   xmlns:dc="http://purl.org/dc/elements/1.1/"
   xmlns:cc="http://creativecommons.org/ns#"
   xmlns:rdf="http://www.w3.org/1999/02/22-rdf-syntax-ns#"
   xmlns:svg="http://www.w3.org/2000/svg"
   xmlns="http://www.w3.org/2000/svg"
   viewBox="0 0 1122.5601 793.76001"
   height="793.76001"
   width="1122.5601"
   xml:space="preserve"
   id="svg2"
   version="1.1"><metadata
     id="metadata8"><rdf:RDF><cc:Work
         rdf:about=""><dc:format>image/svg+xml</dc:format><dc:type
           rdf:resource="http://purl.org/dc/dcmitype/StillImage" /></cc:Work></rdf:RDF></metadata><defs
     id="defs6"><clipPath
       id="clipPath18"
       clipPathUnits="userSpaceOnUse"><path
         style="clip-rule:evenodd"
         id="path16"
         d="M 1.2546e-5,0 H 841.92001 V 595.32 H 1.2546e-5 Z" /></clipPath><clipPath
       id="clipPath30"
       clipPathUnits="userSpaceOnUse"><path
         style="clip-rule:evenodd"
         id="path28"
         d="M 1.2546e-5,0 H 841.92001 V 595.32 H 1.2546e-5 Z" /></clipPath><clipPath
       id="clipPath38"
       clipPathUnits="userSpaceOnUse"><path
         style="clip-rule:evenodd"
         id="path36"
         d="M 1.2546e-5,0 H 841.92001 V 595.32 H 1.2546e-5 Z" /></clipPath><clipPath
       id="clipPath46"
       clipPathUnits="userSpaceOnUse"><path
         style="clip-rule:evenodd"
         id="path44"
         d="M 1.2546e-5,0 H 841.92001 V 595.32 H 1.2546e-5 Z" /></clipPath><clipPath
       id="clipPath58"
       clipPathUnits="userSpaceOnUse"><path
         style="clip-rule:evenodd"
         id="path56"
         d="M 1.2546e-5,0 H 841.92001 V 595.32 H 1.2546e-5 Z" /></clipPath><clipPath
       id="clipPath70"
       clipPathUnits="userSpaceOnUse"><path
         style="clip-rule:evenodd"
         id="path68"
         d="M 1.2546e-5,0 H 841.92001 V 595.32 H 1.2546e-5 Z" /></clipPath><clipPath
       id="clipPath82"
       clipPathUnits="userSpaceOnUse"><path
         style="clip-rule:evenodd"
         id="path80"
         d="M 1.2546e-5,0 H 841.92001 V 595.32 H 1.2546e-5 Z" /></clipPath><clipPath
       id="clipPath94"
       clipPathUnits="userSpaceOnUse"><path
         style="clip-rule:evenodd"
         id="path92"
         d="M 1.2546e-5,0 H 841.92001 V 595.32 H 1.2546e-5 Z" /></clipPath><clipPath
       id="clipPath106"
       clipPathUnits="userSpaceOnUse"><path
         style="clip-rule:evenodd"
         id="path104"
         d="M 1.2546e-5,0 H 841.92001 V 595.32 H 1.2546e-5 Z" /></clipPath><clipPath
       id="clipPath118"
       clipPathUnits="userSpaceOnUse"><path
         style="clip-rule:evenodd"
         id="path116"
         d="M 1.2546e-5,0 H 841.92001 V 595.32 H 1.2546e-5 Z" /></clipPath><clipPath
       id="clipPath126"
       clipPathUnits="userSpaceOnUse"><path
         style="clip-rule:evenodd"
         id="path124"
         d="M 1.2546e-5,0 H 841.92001 V 595.32 H 1.2546e-5 Z" /></clipPath><clipPath
       id="clipPath134"
       clipPathUnits="userSpaceOnUse"><path
         style="clip-rule:evenodd"
         id="path132"
         d="M 1.2546e-5,0 H 841.92001 V 595.32 H 1.2546e-5 Z" /></clipPath><clipPath
       id="clipPath146"
       clipPathUnits="userSpaceOnUse"><path
         style="clip-rule:evenodd"
         id="path144"
         d="M 1.2546e-5,0 H 841.92001 V 595.32 H 1.2546e-5 Z" /></clipPath><clipPath
       id="clipPath154"
       clipPathUnits="userSpaceOnUse"><path
         style="clip-rule:evenodd"
         id="path152"
         d="M 1.2546e-5,0 H 841.92001 V 595.32 H 1.2546e-5 Z" /></clipPath><clipPath
       id="clipPath162"
       clipPathUnits="userSpaceOnUse"><path
         style="clip-rule:evenodd"
         id="path160"
         d="M 1.2546e-5,0 H 841.92001 V 595.32 H 1.2546e-5 Z" /></clipPath><clipPath
       id="clipPath170"
       clipPathUnits="userSpaceOnUse"><path
         style="clip-rule:evenodd"
         id="path168"
         d="M 1.2546e-5,0 H 841.92001 V 595.32 H 1.2546e-5 Z" /></clipPath><clipPath
       id="clipPath178"
       clipPathUnits="userSpaceOnUse"><path
         style="clip-rule:evenodd"
         id="path176"
         d="M 1.2546e-5,0 H 841.92001 V 595.32 H 1.2546e-5 Z" /></clipPath><clipPath
       id="clipPath190"
       clipPathUnits="userSpaceOnUse"><path
         style="clip-rule:evenodd"
         id="path188"
         d="M 1.2546e-5,0 H 841.92001 V 595.32 H 1.2546e-5 Z" /></clipPath><clipPath
       id="clipPath198"
       clipPathUnits="userSpaceOnUse"><path
         style="clip-rule:evenodd"
         id="path196"
         d="M 1.2546e-5,0 H 841.92001 V 595.32 H 1.2546e-5 Z" /></clipPath><clipPath
       id="clipPath206"
       clipPathUnits="userSpaceOnUse"><path
         style="clip-rule:evenodd"
         id="path204"
         d="M 1.2546e-5,0 H 841.92001 V 595.32 H 1.2546e-5 Z" /></clipPath><clipPath
       id="clipPath214"
       clipPathUnits="userSpaceOnUse"><path
         style="clip-rule:evenodd"
         id="path212"
         d="M 1.2546e-5,0 H 841.92001 V 595.32 H 1.2546e-5 Z" /></clipPath><clipPath
       id="clipPath222"
       clipPathUnits="userSpaceOnUse"><path
         style="clip-rule:evenodd"
         id="path220"
         d="M 1.2546e-5,0 H 841.92001 V 595.32 H 1.2546e-5 Z" /></clipPath></defs><g
     transform="matrix(1.3333333,0,0,-1.3333333,0,793.76)"
     id="g10"><g
       id="g12"><g
         clip-path="url(#clipPath18)"
         id="g14"><text
           id="text22"
           style="font-variant:normal;font-weight:300;font-size:11.03999996px;font-family:Calibri;-inkscape-font-specification:Calibri-Light;writing-mode:lr-tb;fill:#000000;fill-opacity:1;fill-rule:nonzero;stroke:none"
           transform="matrix(1,0,0,-1,667.06,549.6)"><tspan
             id="tspan20"
             y="0"
             x="0 5.0342398 10.06848 16.284 23.0184 25.513439 31.762079 36.06768 40.37328 42.768959 47.94672 53.687519 62.420158 67.873917 73.614723 77.21376 79.708801 85.361282 87.856323 93.729599 99.183357 104.92416 110.676 114.50688">SSAD Assignment 4 Report</tspan></text>
</g></g><g
       id="g24"><g
         clip-path="url(#clipPath30)"
         id="g26" /></g><g
       id="g32"><g
         clip-path="url(#clipPath38)"
         id="g34" /></g><g
       id="g40"><g
         clip-path="url(#clipPath46)"
         id="g42"><text
           id="text50"
           style="font-variant:normal;font-weight:300;font-size:11.03999996px;font-family:Calibri;-inkscape-font-specification:Calibri-Light;writing-mode:lr-tb;fill:#000000;fill-opacity:1;fill-rule:nonzero;stroke:none"
           transform="matrix(1,0,0,-1,681.58,536.16)"><tspan
             id="tspan48"
             y="0"
             x="0 6.94416 9.3398399 14.7384 20.4792 23.00736 28.615681 34.290241 40.03104 45.782879 50.64048 53.34528">Gleb Popov, </tspan></text>
</g></g><g
       id="g52"><g
         clip-path="url(#clipPath58)"
         id="g54"><text
           id="text62"
           style="font-variant:normal;font-weight:300;font-size:11.03999996px;font-family:Calibri;-inkscape-font-specification:Calibri-Light;writing-mode:lr-tb;fill:#000000;fill-opacity:1;fill-rule:nonzero;stroke:none"
           transform="matrix(1,0,0,-1,737.52,536.16)"><tspan
             id="tspan60"
             y="0"
             x="0 5.7628798 11.39328">B23</tspan></text>
</g></g><g
       id="g64"><g
         clip-path="url(#clipPath70)"
         id="g66"><text
           id="text74"
           style="font-variant:normal;font-weight:300;font-size:11.03999996px;font-family:Calibri;-inkscape-font-specification:Calibri-Light;writing-mode:lr-tb;fill:#000000;fill-opacity:1;fill-rule:nonzero;stroke:none"
           transform="matrix(1,0,0,-1,754.56,536.16)"><tspan
             id="tspan72"
             y="0"
             x="0">-</tspan></text>
</g></g><g
       id="g76"><g
         clip-path="url(#clipPath82)"
         id="g78"><text
           id="text86"
           style="font-variant:normal;font-weight:300;font-size:11.03999996px;font-family:Calibri;-inkscape-font-specification:Calibri-Light;writing-mode:lr-tb;fill:#000000;fill-opacity:1;fill-rule:nonzero;stroke:none"
           transform="matrix(1,0,0,-1,757.92,536.16)"><tspan
             id="tspan84"
             y="0"
             x="0 2.6385601 7.5623999">ISE</tspan></text>
</g></g><g
       id="g88"><g
         clip-path="url(#clipPath94)"
         id="g90"><text
           id="text98"
           style="font-variant:normal;font-weight:300;font-size:11.03999996px;font-family:Calibri;-inkscape-font-specification:Calibri-Light;writing-mode:lr-tb;fill:#000000;fill-opacity:1;fill-rule:nonzero;stroke:none"
           transform="matrix(1,0,0,-1,770.88,536.16)"><tspan
             id="tspan96"
             y="0"
             x="0">-</tspan></text>
</g></g><g
       id="g100"><g
         clip-path="url(#clipPath106)"
         id="g102"><text
           id="text110"
           style="font-variant:normal;font-weight:300;font-size:11.03999996px;font-family:Calibri;-inkscape-font-specification:Calibri-Light;writing-mode:lr-tb;fill:#000000;fill-opacity:1;fill-rule:nonzero;stroke:none"
           transform="matrix(1,0,0,-1,774.24,536.16)"><tspan
             id="tspan108"
             y="0"
             x="0 5.51998">01</tspan></text>
</g></g><g
       id="g112"><g
         clip-path="url(#clipPath118)"
         id="g114" /></g><g
       id="g120"><g
         clip-path="url(#clipPath126)"
         id="g122" /></g><g
       id="g128"><g
         clip-path="url(#clipPath134)"
         id="g130"><text
           id="text138"
           style="font-style:italic;font-variant:normal;font-weight:300;font-size:11.03999996px;font-family:Calibri;-inkscape-font-specification:Calibri-LightItalic;writing-mode:lr-tb;fill:#000000;fill-opacity:1;fill-rule:nonzero;stroke:none"
           transform="matrix(1,0,0,-1,699.48,522.7)"><tspan
             id="tspan136"
             y="0"
             x="0 2.6385601 8.26896 13.89936 19.419359 25.049761 30.680161 33.07584 35.361118 39.666721 42.161758 49.150082 54.780479 57.176159 61.956478 67.145279 70.733276 75.038879 77.434563 81.066719">Innopolis University</tspan></text>
</g></g><g
       id="g140"><g
         clip-path="url(#clipPath146)"
         id="g142" /></g><g
       id="g148"><g
         clip-path="url(#clipPath154)"
         id="g150" /></g><g
       id="g156"><g
         clip-path="url(#clipPath162)"
         id="g158" /></g><g
       id="g164"><g
         clip-path="url(#clipPath170)"
         id="g166" /></g><g
       id="g172"><g
         clip-path="url(#clipPath178)"
         id="g174"><text
           id="text182"
           style="font-variant:normal;font-weight:normal;font-size:11.03999996px;font-family:Calibri;-inkscape-font-specification:Calibri;writing-mode:lr-tb;fill:#000000;fill-opacity:1;fill-rule:nonzero;stroke:none"
           transform="matrix(1,0,0,-1,418.15,51.864)"><tspan
             id="tspan180"
             y="0"
             x="0">4</tspan></text>
</g></g><g
       id="g184"><g
         clip-path="url(#clipPath190)"
         id="g186" /></g><g
       id="g192"><g
         clip-path="url(#clipPath198)"
         id="g194" /></g><g
       id="g200"><g
         clip-path="url(#clipPath206)"
         id="g202" /></g><g
       id="g208"><g
         clip-path="url(#clipPath214)"
         id="g210" /></g><g
       id="g216"><g
         clip-path="url(#clipPath222)"
         id="g218" /></g></g></svg>