<?xml version="1.0" encoding="utf-8"?>
<svg viewBox="0 0 1122.5601 793.76001" xmlns="http://www.w3.org/2000/svg">
  <defs>
    <clipPath id="clipPath18" clipPathUnits="userSpaceOnUse">
      <path style="clip-rule:evenodd" id="path16" d="M 1.2546e-5,0 H 841.92001 V 595.32 H 1.2546e-5 Z"/>
    </clipPath>
    <clipPath id="clipPath30" clipPathUnits="userSpaceOnUse">
      <path style="clip-rule:evenodd" id="path28" d="M 1.2546e-5,0 H 841.92001 V 595.32 H 1.2546e-5 Z"/>
    </clipPath>
    <clipPath id="clipPath38" clipPathUnits="userSpaceOnUse">
      <path style="clip-rule:evenodd" id="path36" d="M 1.2546e-5,0 H 841.92001 V 595.32 H 1.2546e-5 Z"/>
    </clipPath>
    <clipPath id="clipPath50" clipPathUnits="userSpaceOnUse">
      <path style="clip-rule:evenodd" id="path48" d="M 1.2546e-5,0 H 841.92001 V 595.32 H 1.2546e-5 Z"/>
    </clipPath>
  </defs>
  <g transform="matrix(1.3333330154418945, 0, 0, -1.3333330154418945, 0, 793.7600215935709)" id="g10" style="">
    <g id="g12">
      <g clip-path="url(#clipPath18)" id="g14">
        <text id="text22" style="font-variant: normal; font-weight: 300; font-size: 21.96px; font-family: Calibri; writing-mode: lr-tb; fill: rgb(0, 0, 0); fill-opacity: 1; fill-rule: nonzero; stroke: none; white-space: pre;" transform="matrix(1,0,0,-1,56.64,517.54)"><tspan id="tspan20" y="0" x="0 13.96656 32.522758 41.723999 46.686958 60.016682 64.869843 75.212997 85.512238 93.08844 103.4316">UML Diagram</tspan></text>
      </g>
    </g>
    <g id="g24">
      <g clip-path="url(#clipPath30)" id="g26"/>
    </g>
    <g id="g32">
      <g clip-path="url(#clipPath38)" id="g34">
        <g id="g40">
          <path id="path42" style="fill:#000000;fill-opacity:1;fill-rule:evenodd;stroke:none" d="m 55.2,509.98 h 731.5 v 0.72 H 55.2 Z"/>
        </g>
      </g>
    </g>
    <g id="g44">
      <g clip-path="url(#clipPath50)" id="g46"/>
    </g>
  </g>
  <g style="" transform="matrix(0.5364379286766052, 0, 0, 0.58604496717453, 348.66290802751337, 254.20413586801465)">
    <g style="pointer-events: none;">
      <title>UML</title>
      <g>
        <g>
          <g transform="matrix(1, 0, 0, 1, -520.891304, -229.944248)">
            <g id="elem_AccountState">
              <rect codeline="1" fill="#F1F1F1" height="129.4844" id="AccountState" rx="2.5" ry="2.5" style="stroke:#181818;stroke-width:0.5;" width="906" x="477" y="771.01"/>
              <ellipse cx="879.25" cy="787.01" fill="#ADD1B2" rx="11" ry="11" style="stroke:#181818;stroke-width:1.0;"/>
              <path d="M882.2188,792.6506 Q881.6406,792.9475 881,793.0881 Q880.3594,793.2444 879.6563,793.2444 Q877.1563,793.2444 875.8281,791.6038 Q874.5156,789.9475 874.5156,786.8225 Q874.5156,783.6975 875.8281,782.0413 Q877.1563,780.385 879.6563,780.385 Q880.3594,780.385 881,780.5413 Q881.6563,780.6975 882.2188,780.9944 L882.2188,783.7131 Q881.5938,783.135 881,782.8694 Q880.4063,782.5881 879.7813,782.5881 Q878.4375,782.5881 877.75,783.6663 Q877.0625,784.7288 877.0625,786.8225 Q877.0625,788.9163 877.75,789.9944 Q878.4375,791.0569 879.7813,791.0569 Q880.4063,791.0569 881,790.7913 Q881.5938,790.51 882.2188,789.9319 L882.2188,792.6506 Z " fill="#000000"/>
              <text fill="#000000" font-family="sans-serif" font-size="14" lengthAdjust="spacing" textLength="93" x="899.75" y="791.8567" style="white-space: pre;">AccountState</text>
              <line style="stroke:#181818;stroke-width:0.5;" x1="478" x2="1382" y1="803.01" y2="803.01"/>
              <line style="stroke:#181818;stroke-width:0.5;" x1="478" x2="1382" y1="811.01" y2="811.01"/>
              <ellipse cx="488" cy="824.6584" fill="#84BE84" rx="3" ry="3" style="stroke:#038048;stroke-width:1.0;"/>
              <text fill="#000000" font-family="sans-serif" font-size="14" lengthAdjust="spacing" textLength="616" x="497" y="828.0051" style="white-space: pre;">view(const string&amp; name, const string&amp; type, const float&amp; balance, const string&amp; tr): void</text>
              <ellipse cx="488" cy="840.9553" fill="#84BE84" rx="3" ry="3" style="stroke:#038048;stroke-width:1.0;"/>
              <text fill="#000000" font-family="sans-serif" font-size="14" lengthAdjust="spacing" textLength="255" x="497" y="844.302" style="white-space: pre;">deactivate(const string&amp; name): void</text>
              <ellipse cx="488" cy="857.2522" fill="#84BE84" rx="3" ry="3" style="stroke:#038048;stroke-width:1.0;"/>
              <text fill="#000000" font-family="sans-serif" font-size="14" lengthAdjust="spacing" textLength="237" x="497" y="860.5989" style="white-space: pre;">activate(const string&amp; name): void</text>
              <ellipse cx="488" cy="873.5491" fill="#84BE84" rx="3" ry="3" style="stroke:#038048;stroke-width:1.0;"/>
              <text fill="#000000" font-family="sans-serif" font-size="14" lengthAdjust="spacing" textLength="757" x="497" y="876.8957" style="white-space: pre;">withdraw(const string&amp; name, const float&amp; summ, float&amp; balance, const string&amp; type, ostringstream&amp; tr): void</text>
              <ellipse cx="488" cy="889.8459" fill="#84BE84" rx="3" ry="3" style="stroke:#038048;stroke-width:1.0;"/>
              <text fill="#000000" font-family="sans-serif" font-size="14" lengthAdjust="spacing" textLength="880" x="497" y="893.1926" style="white-space: pre;">transfer(const string&amp; name, const string&amp; acc, const float&amp; summ, float&amp; balance, const string&amp; type, ostringstream&amp; tr): float</text>
            </g>
            <g id="elem_ActiveState">
              <rect codeline="9" fill="#F1F1F1" height="129.4844" id="ActiveState" rx="2.5" ry="2.5" style="stroke:#181818;stroke-width:0.5;" width="906" x="7" y="960.5"/>
              <ellipse cx="417.25" cy="976.5" fill="#ADD1B2" rx="11" ry="11" style="stroke:#181818;stroke-width:1.0;"/>
              <path d="M420.2188,982.1406 Q419.6406,982.4375 419,982.5781 Q418.3594,982.7344 417.6563,982.7344 Q415.1563,982.7344 413.8281,981.0938 Q412.5156,979.4375 412.5156,976.3125 Q412.5156,973.1875 413.8281,971.5313 Q415.1563,969.875 417.6563,969.875 Q418.3594,969.875 419,970.0313 Q419.6563,970.1875 420.2188,970.4844 L420.2188,973.2031 Q419.5938,972.625 419,972.3594 Q418.4063,972.0781 417.7813,972.0781 Q416.4375,972.0781 415.75,973.1563 Q415.0625,974.2188 415.0625,976.3125 Q415.0625,978.4063 415.75,979.4844 Q416.4375,980.5469 417.7813,980.5469 Q418.4063,980.5469 419,980.2813 Q419.5938,980 420.2188,979.4219 L420.2188,982.1406 Z " fill="#000000"/>
              <text fill="#000000" font-family="sans-serif" font-size="14" lengthAdjust="spacing" textLength="77" x="437.75" y="981.3467" style="white-space: pre;">ActiveState</text>
              <line style="stroke:#181818;stroke-width:0.5;" x1="8" x2="912" y1="992.5" y2="992.5"/>
              <line style="stroke:#181818;stroke-width:0.5;" x1="8" x2="912" y1="1000.5" y2="1000.5"/>
              <ellipse cx="18" cy="1014.1484" fill="#84BE84" rx="3" ry="3" style="stroke:#038048;stroke-width:1.0;"/>
              <text fill="#000000" font-family="sans-serif" font-size="14" lengthAdjust="spacing" textLength="616" x="27" y="1017.4951" style="white-space: pre;">view(const string&amp; name, const string&amp; type, const float&amp; balance, const string&amp; tr): void</text>
              <ellipse cx="18" cy="1030.4453" fill="#84BE84" rx="3" ry="3" style="stroke:#038048;stroke-width:1.0;"/>
              <text fill="#000000" font-family="sans-serif" font-size="14" lengthAdjust="spacing" textLength="255" x="27" y="1033.792" style="white-space: pre;">deactivate(const string&amp; name): void</text>
              <ellipse cx="18" cy="1046.7422" fill="#84BE84" rx="3" ry="3" style="stroke:#038048;stroke-width:1.0;"/>
              <text fill="#000000" font-family="sans-serif" font-size="14" lengthAdjust="spacing" textLength="237" x="27" y="1050.0889" style="white-space: pre;">activate(const string&amp; name): void</text>
              <ellipse cx="18" cy="1063.0391" fill="#84BE84" rx="3" ry="3" style="stroke:#038048;stroke-width:1.0;"/>
              <text fill="#000000" font-family="sans-serif" font-size="14" lengthAdjust="spacing" textLength="757" x="27" y="1066.3857" style="white-space: pre;">withdraw(const string&amp; name, const float&amp; summ, float&amp; balance, const string&amp; type, ostringstream&amp; tr): void</text>
              <ellipse cx="18" cy="1079.3359" fill="#84BE84" rx="3" ry="3" style="stroke:#038048;stroke-width:1.0;"/>
              <text fill="#000000" font-family="sans-serif" font-size="14" lengthAdjust="spacing" textLength="880" x="27" y="1082.6826" style="white-space: pre;">transfer(const string&amp; name, const string&amp; acc, const float&amp; summ, float&amp; balance, const string&amp; type, ostringstream&amp; tr): float</text>
            </g>
            <g id="elem_InactiveState">
              <rect codeline="17" fill="#F1F1F1" height="129.4844" id="InactiveState" rx="2.5" ry="2.5" style="stroke:#181818;stroke-width:0.5;" width="906" x="948" y="960.5"/>
              <ellipse cx="1352.75" cy="976.5" fill="#ADD1B2" rx="11" ry="11" style="stroke:#181818;stroke-width:1.0;"/>
              <path d="M1355.7188,982.1406 Q1355.1406,982.4375 1354.5,982.5781 Q1353.8594,982.7344 1353.1563,982.7344 Q1350.6563,982.7344 1349.3281,981.0938 Q1348.0156,979.4375 1348.0156,976.3125 Q1348.0156,973.1875 1349.3281,971.5313 Q1350.6563,969.875 1353.1563,969.875 Q1353.8594,969.875 1354.5,970.0313 Q1355.1563,970.1875 1355.7188,970.4844 L1355.7188,973.2031 Q1355.0938,972.625 1354.5,972.3594 Q1353.9063,972.0781 1353.2813,972.0781 Q1351.9375,972.0781 1351.25,973.1563 Q1350.5625,974.2188 1350.5625,976.3125 Q1350.5625,978.4063 1351.25,979.4844 Q1351.9375,980.5469 1353.2813,980.5469 Q1353.9063,980.5469 1354.5,980.2813 Q1355.0938,980 1355.7188,979.4219 L1355.7188,982.1406 Z " fill="#000000"/>
              <text fill="#000000" font-family="sans-serif" font-size="14" lengthAdjust="spacing" textLength="88" x="1373.25" y="981.3467" style="white-space: pre;">InactiveState</text>
              <line style="stroke:#181818;stroke-width:0.5;" x1="949" x2="1853" y1="992.5" y2="992.5"/>
              <line style="stroke:#181818;stroke-width:0.5;" x1="949" x2="1853" y1="1000.5" y2="1000.5"/>
              <ellipse cx="959" cy="1014.1484" fill="#84BE84" rx="3" ry="3" style="stroke:#038048;stroke-width:1.0;"/>
              <text fill="#000000" font-family="sans-serif" font-size="14" lengthAdjust="spacing" textLength="616" x="968" y="1017.4951" style="white-space: pre;">view(const string&amp; name, const string&amp; type, const float&amp; balance, const string&amp; tr): void</text>
              <ellipse cx="959" cy="1030.4453" fill="#84BE84" rx="3" ry="3" style="stroke:#038048;stroke-width:1.0;"/>
              <text fill="#000000" font-family="sans-serif" font-size="14" lengthAdjust="spacing" textLength="255" x="968" y="1033.792" style="white-space: pre;">deactivate(const string&amp; name): void</text>
              <ellipse cx="959" cy="1046.7422" fill="#84BE84" rx="3" ry="3" style="stroke:#038048;stroke-width:1.0;"/>
              <text fill="#000000" font-family="sans-serif" font-size="14" lengthAdjust="spacing" textLength="237" x="968" y="1050.0889" style="white-space: pre;">activate(const string&amp; name): void</text>
              <ellipse cx="959" cy="1063.0391" fill="#84BE84" rx="3" ry="3" style="stroke:#038048;stroke-width:1.0;"/>
              <text fill="#000000" font-family="sans-serif" font-size="14" lengthAdjust="spacing" textLength="757" x="968" y="1066.3857" style="white-space: pre;">withdraw(const string&amp; name, const float&amp; summ, float&amp; balance, const string&amp; type, ostringstream&amp; tr): void</text>
              <ellipse cx="959" cy="1079.3359" fill="#84BE84" rx="3" ry="3" style="stroke:#038048;stroke-width:1.0;"/>
              <text fill="#000000" font-family="sans-serif" font-size="14" lengthAdjust="spacing" textLength="880" x="968" y="1082.6826" style="white-space: pre;">transfer(const string&amp; name, const string&amp; acc, const float&amp; summ, float&amp; balance, const string&amp; type, ostringstream&amp; tr): float</text>
            </g>
            <g id="elem_Account">
              <rect codeline="25" fill="#F1F1F1" height="276.1563" id="Account" style="stroke:#181818;stroke-width:0.5;" width="302" x="779" y="434.86" rx="2.5" ry="2.5"/>
              <ellipse cx="897.25" cy="450.86" fill="#ADD1B2" rx="11" ry="11" style="stroke:#181818;stroke-width:1.0;"/>
              <path d="M900.2188,456.5006 Q899.6406,456.7975 899,456.9381 Q898.3594,457.0944 897.6563,457.0944 Q895.1563,457.0944 893.8281,455.4538 Q892.5156,453.7975 892.5156,450.6725 Q892.5156,447.5475 893.8281,445.8913 Q895.1563,444.235 897.6563,444.235 Q898.3594,444.235 899,444.3913 Q899.6563,444.5475 900.2188,444.8444 L900.2188,447.5631 Q899.5938,446.985 899,446.7194 Q898.4063,446.4381 897.7813,446.4381 Q896.4375,446.4381 895.75,447.5163 Q895.0625,448.5788 895.0625,450.6725 Q895.0625,452.7663 895.75,453.8444 Q896.4375,454.9069 897.7813,454.9069 Q898.4063,454.9069 899,454.6413 Q899.5938,454.36 900.2188,453.7819 L900.2188,456.5006 Z " fill="#000000"/>
              <text fill="#000000" font-family="sans-serif" font-size="14" lengthAdjust="spacing" textLength="57" x="917.75" y="455.7067" style="white-space: pre;">Account</text>
              <line style="stroke:#181818;stroke-width:0.5;" x1="780" x2="1080" y1="466.86" y2="466.86"/>
              <rect fill="none" height="6" style="stroke:#C82930;stroke-width:1.0;" width="6" x="787" y="477.5084"/>
              <text fill="#000000" font-family="sans-serif" font-size="14" lengthAdjust="spacing" textLength="78" x="799" y="483.8551" style="white-space: pre;">type: string</text>
              <rect fill="none" height="6" style="stroke:#C82930;stroke-width:1.0;" width="6" x="787" y="493.8053"/>
              <text fill="#000000" font-family="sans-serif" font-size="14" lengthAdjust="spacing" textLength="87" x="799" y="500.152" style="white-space: pre;">name: string</text>
              <rect fill="none" height="6" style="stroke:#C82930;stroke-width:1.0;" width="6" x="787" y="510.1022"/>
              <text fill="#000000" font-family="sans-serif" font-size="14" lengthAdjust="spacing" textLength="92" x="799" y="516.4489" style="white-space: pre;">balance: float</text>
              <rect fill="none" height="6" style="stroke:#C82930;stroke-width:1.0;" width="6" x="787" y="526.3991"/>
              <text fill="#000000" font-family="sans-serif" font-size="14" lengthAdjust="spacing" textLength="144" x="799" y="532.7457" style="white-space: pre;">state: AccountState*</text>
              <rect fill="none" height="6" style="stroke:#C82930;stroke-width:1.0;" width="6" x="787" y="542.6959"/>
              <text fill="#000000" font-family="sans-serif" font-size="14" lengthAdjust="spacing" textLength="190" x="799" y="549.0426" style="white-space: pre;">transactions: ostringstream</text>
              <line style="stroke:#181818;stroke-width:0.5;" x1="780" x2="1080" y1="556.3444" y2="556.3444"/>
              <ellipse cx="790" cy="569.9928" fill="#84BE84" rx="3" ry="3" style="stroke:#038048;stroke-width:1.0;"/>
              <text fill="#000000" font-family="sans-serif" font-size="14" lengthAdjust="spacing" textLength="225" x="799" y="573.3395" style="white-space: pre;">Account(string t, string n, float b)</text>
              <ellipse cx="790" cy="586.2897" fill="#84BE84" rx="3" ry="3" style="stroke:#038048;stroke-width:1.0;"/>
              <text fill="#000000" font-family="sans-serif" font-size="14" lengthAdjust="spacing" textLength="175" x="799" y="589.6364" style="white-space: pre;">deposit(float summ): void</text>
              <ellipse cx="790" cy="602.5866" fill="#84BE84" rx="3" ry="3" style="stroke:#038048;stroke-width:1.0;"/>
              <text fill="#000000" font-family="sans-serif" font-size="14" lengthAdjust="spacing" textLength="77" x="799" y="605.9332" style="white-space: pre;">view(): void</text>
              <ellipse cx="790" cy="618.8834" fill="#84BE84" rx="3" ry="3" style="stroke:#038048;stroke-width:1.0;"/>
              <text fill="#000000" font-family="sans-serif" font-size="14" lengthAdjust="spacing" textLength="118" x="799" y="622.2301" style="white-space: pre;">deactivate(): void</text>
              <ellipse cx="790" cy="635.1803" fill="#84BE84" rx="3" ry="3" style="stroke:#038048;stroke-width:1.0;"/>
              <text fill="#000000" font-family="sans-serif" font-size="14" lengthAdjust="spacing" textLength="100" x="799" y="638.527" style="white-space: pre;">activate(): void</text>
              <ellipse cx="790" cy="651.4772" fill="#84BE84" rx="3" ry="3" style="stroke:#038048;stroke-width:1.0;"/>
              <text fill="#000000" font-family="sans-serif" font-size="14" lengthAdjust="spacing" textLength="184" x="799" y="654.8239" style="white-space: pre;">withdraw(float summ): void</text>
              <ellipse cx="790" cy="667.7741" fill="#84BE84" rx="3" ry="3" style="stroke:#038048;stroke-width:1.0;"/>
              <text fill="#000000" font-family="sans-serif" font-size="14" lengthAdjust="spacing" textLength="276" x="799" y="671.1207" style="white-space: pre;">transfer(float summ, Account* acc): void</text>
              <ellipse cx="790" cy="684.0709" fill="#84BE84" rx="3" ry="3" style="stroke:#038048;stroke-width:1.0;"/>
              <text fill="#000000" font-family="sans-serif" font-size="14" lengthAdjust="spacing" textLength="204" x="799" y="687.4176" style="white-space: pre;">sendMoney(float summ): void</text>
              <ellipse cx="790" cy="700.3678" fill="#84BE84" rx="3" ry="3" style="stroke:#038048;stroke-width:1.0;"/>
              <text fill="#000000" font-family="sans-serif" font-size="14" lengthAdjust="spacing" textLength="176" x="799" y="703.7145" style="white-space: pre;">getName(): const string&amp;</text>
            </g>
            <g id="elem_Database">
              <rect codeline="42" fill="#F1F1F1" height="113.1875" id="Database" rx="2.5" ry="2.5" style="stroke:#181818;stroke-width:0.5;" width="570" x="645" y="261.67"/>
              <ellipse cx="892.75" cy="277.67" fill="#ADD1B2" rx="11" ry="11" style="stroke:#181818;stroke-width:1.0;"/>
              <path d="M895.7188,283.3106 Q895.1406,283.6075 894.5,283.7481 Q893.8594,283.9044 893.1563,283.9044 Q890.6563,283.9044 889.3281,282.2638 Q888.0156,280.6075 888.0156,277.4825 Q888.0156,274.3575 889.3281,272.7013 Q890.6563,271.045 893.1563,271.045 Q893.8594,271.045 894.5,271.2013 Q895.1563,271.3575 895.7188,271.6544 L895.7188,274.3731 Q895.0938,273.795 894.5,273.5294 Q893.9063,273.2481 893.2813,273.2481 Q891.9375,273.2481 891.25,274.3263 Q890.5625,275.3888 890.5625,277.4825 Q890.5625,279.5763 891.25,280.6544 Q891.9375,281.7169 893.2813,281.7169 Q893.9063,281.7169 894.5,281.4513 Q895.0938,281.17 895.7188,280.5919 L895.7188,283.3106 Z " fill="#000000"/>
              <text fill="#000000" font-family="sans-serif" font-size="14" lengthAdjust="spacing" textLength="66" x="913.25" y="282.5167" style="white-space: pre;">Database</text>
              <line style="stroke:#181818;stroke-width:0.5;" x1="646" x2="1214" y1="293.67" y2="293.67"/>
              <rect fill="none" height="6" style="stroke:#C82930;stroke-width:1.0;" width="6" x="653" y="304.3184"/>
              <text fill="#000000" font-family="sans-serif" font-size="14" lengthAdjust="spacing" textLength="231" x="665" y="310.6651" style="white-space: pre;">accounts: map&lt;string, Account&gt;</text>
              <line style="stroke:#181818;stroke-width:0.5;" x1="646" x2="1214" y1="317.9669" y2="317.9669"/>
              <ellipse cx="656" cy="331.6153" fill="#84BE84" rx="3" ry="3" style="stroke:#038048;stroke-width:1.0;"/>
              <text fill="#000000" font-family="sans-serif" font-size="14" lengthAdjust="spacing" textLength="215" x="665" y="334.962" style="white-space: pre;">getInstance(): static Database*</text>
              <ellipse cx="656" cy="347.9122" fill="#84BE84" rx="3" ry="3" style="stroke:#038048;stroke-width:1.0;"/>
              <text fill="#000000" font-family="sans-serif" font-size="14" lengthAdjust="spacing" textLength="544" x="665" y="351.2589" style="white-space: pre;">createAccount(const string&amp; type, const string&amp; name, const float&amp; dep): void</text>
              <ellipse cx="656" cy="364.2091" fill="#84BE84" rx="3" ry="3" style="stroke:#038048;stroke-width:1.0;"/>
              <text fill="#000000" font-family="sans-serif" font-size="14" lengthAdjust="spacing" textLength="300" x="665" y="367.5557" style="white-space: pre;">getAccount(const string&amp; name): Account*</text>
            </g>
            <g id="elem_BankFacade">
              <rect codeline="49" fill="#F1F1F1" height="194.6719" id="BankFacade" rx="2.5" ry="2.5" style="stroke:#181818;stroke-width:0.5;" width="570" x="645" y="7"/>
              <ellipse cx="883.25" cy="23" fill="#ADD1B2" rx="11" ry="11" style="stroke:#181818;stroke-width:1.0;"/>
              <path d="M886.2188,28.6406 Q885.6406,28.9375 885,29.0781 Q884.3594,29.2344 883.6563,29.2344 Q881.1563,29.2344 879.8281,27.5938 Q878.5156,25.9375 878.5156,22.8125 Q878.5156,19.6875 879.8281,18.0313 Q881.1563,16.375 883.6563,16.375 Q884.3594,16.375 885,16.5313 Q885.6563,16.6875 886.2188,16.9844 L886.2188,19.7031 Q885.5938,19.125 885,18.8594 Q884.4063,18.5781 883.7813,18.5781 Q882.4375,18.5781 881.75,19.6563 Q881.0625,20.7188 881.0625,22.8125 Q881.0625,24.9063 881.75,25.9844 Q882.4375,27.0469 883.7813,27.0469 Q884.4063,27.0469 885,26.7813 Q885.5938,26.5 886.2188,25.9219 L886.2188,28.6406 Z " fill="#000000"/>
              <text fill="#000000" font-family="sans-serif" font-size="14" lengthAdjust="spacing" textLength="85" x="903.75" y="27.8467" style="white-space: pre;">BankFacade</text>
              <line style="stroke:#181818;stroke-width:0.5;" x1="646" x2="1214" y1="39" y2="39"/>
              <rect fill="none" height="6" style="stroke:#C82930;stroke-width:1.0;" width="6" x="653" y="49.6484"/>
              <text fill="#000000" font-family="sans-serif" font-size="14" lengthAdjust="spacing" textLength="100" x="665" y="55.9951" style="white-space: pre;">db: Database*</text>
              <line style="stroke:#181818;stroke-width:0.5;" x1="646" x2="1214" y1="63.2969" y2="63.2969"/>
              <ellipse cx="656" cy="76.9453" fill="#84BE84" rx="3" ry="3" style="stroke:#038048;stroke-width:1.0;"/>
              <text fill="#000000" font-family="sans-serif" font-size="14" lengthAdjust="spacing" textLength="234" x="665" y="80.292" style="white-space: pre;">getInstance(): static BankFacade*</text>
              <ellipse cx="656" cy="93.2422" fill="#84BE84" rx="3" ry="3" style="stroke:#038048;stroke-width:1.0;"/>
              <text fill="#000000" font-family="sans-serif" font-size="14" lengthAdjust="spacing" textLength="544" x="665" y="96.5889" style="white-space: pre;">createAccount(const string&amp; type, const string&amp; name, const float&amp; dep): void</text>
              <ellipse cx="656" cy="109.5391" fill="#84BE84" rx="3" ry="3" style="stroke:#038048;stroke-width:1.0;"/>
              <text fill="#000000" font-family="sans-serif" font-size="14" lengthAdjust="spacing" textLength="359" x="665" y="112.8857" style="white-space: pre;">deposit(const string&amp; name, const float&amp; dep): void</text>
              <ellipse cx="656" cy="125.8359" fill="#84BE84" rx="3" ry="3" style="stroke:#038048;stroke-width:1.0;"/>
              <text fill="#000000" font-family="sans-serif" font-size="14" lengthAdjust="spacing" textLength="368" x="665" y="129.1826" style="white-space: pre;">withdraw(const string&amp; name, const float&amp; dep): void</text>
              <ellipse cx="656" cy="142.1328" fill="#84BE84" rx="3" ry="3" style="stroke:#038048;stroke-width:1.0;"/>
              <text fill="#000000" font-family="sans-serif" font-size="14" lengthAdjust="spacing" textLength="472" x="665" y="145.4795" style="white-space: pre;">transfer(const string&amp; from, const string&amp; to, const float&amp; dep): void</text>
              <ellipse cx="656" cy="158.4297" fill="#84BE84" rx="3" ry="3" style="stroke:#038048;stroke-width:1.0;"/>
              <text fill="#000000" font-family="sans-serif" font-size="14" lengthAdjust="spacing" textLength="214" x="665" y="161.7764" style="white-space: pre;">view(const string&amp; name): void</text>
              <ellipse cx="656" cy="174.7266" fill="#84BE84" rx="3" ry="3" style="stroke:#038048;stroke-width:1.0;"/>
              <text fill="#000000" font-family="sans-serif" font-size="14" lengthAdjust="spacing" textLength="255" x="665" y="178.0732" style="white-space: pre;">deactivate(const string&amp; name): void</text>
              <ellipse cx="656" cy="191.0234" fill="#84BE84" rx="3" ry="3" style="stroke:#038048;stroke-width:1.0;"/>
              <text fill="#000000" font-family="sans-serif" font-size="14" lengthAdjust="spacing" textLength="237" x="665" y="194.3701" style="white-space: pre;">activate(const string&amp; name): void</text>
            </g>
            <g id="link_AccountState_ActiveState">
              <path codeline="61" d="M752.5212,907.5494 C704.5412,926.6894 668.67,941 620.69,960.14 " fill="none" id="AccountState-backto-ActiveState" style="stroke:#181818;stroke-width:1.0;"/>
              <polygon fill="none" points="769.24,900.88,750.298,901.9765,754.7443,913.1223,769.24,900.88" style="stroke:#181818;stroke-width:1.0;"/>
            </g>
            <g id="link_AccountState_InactiveState">
              <path codeline="62" d="M1107.8241,907.5362 C1155.9141,926.6762 1191.88,941 1239.96,960.14 " fill="none" id="AccountState-backto-InactiveState" style="stroke:#181818;stroke-width:1.0;"/>
              <polygon fill="none" points="1091.1,900.88,1105.6053,913.1109,1110.0428,901.9616,1091.1,900.88" style="stroke:#181818;stroke-width:1.0;"/>
            </g>
            <g id="link_Account_AccountState">
              <path codeline="63" d="M930,723.22 C930,743.96 930,752.47 930,770.64 " fill="none" id="Account-backto-AccountState" style="stroke:#181818;stroke-width:1.0;"/>
              <polygon fill="#181818" points="930,711.22,926,717.22,930,723.22,934,717.22,930,711.22" style="stroke:#181818;stroke-width:1.0;"/>
            </g>
            <g id="link_Database_Account">
              <path codeline="64" d="M930,387.34 C930,405.07 930,413.52 930,434.38 " fill="none" id="Database-backto-Account" style="stroke:#181818;stroke-width:1.0;"/>
              <polygon fill="#181818" points="930,375.34,926,381.34,930,387.34,934,381.34,930,375.34" style="stroke:#181818;stroke-width:1.0;"/>
            </g>
            <g id="link_BankFacade_Database">
              <path codeline="65" d="M930,213.99 C930,234.3 930,243.06 930,261.27 " fill="none" id="BankFacade-backto-Database" style="stroke:#181818;stroke-width:1.0;"/>
              <polygon fill="#181818" points="930,201.99,926,207.99,930,213.99,934,207.99,930,201.99" style="stroke:#181818;stroke-width:1.0;"/>
            </g>
          </g>
        </g>
      </g>
    </g>
  </g>
</svg>